<?xml version="1.0" encoding="UTF-8" standalone="no"?>
<svg width="85px" height="37px" viewBox="0 0 85 37" version="1.1" xmlns="http://www.w3.org/2000/svg" xmlns:xlink="http://www.w3.org/1999/xlink">
    <g id="Symbols" stroke="none" stroke-width="1" fill="none" fill-rule="evenodd">
        <g id="left-menu_v4" transform="translate(-86.000000, -30.000000)">
            <g id="Group" transform="translate(86.000000, 30.000000)">
                <path d="M15.1738459,30.896142 L15.1738459,9.7125 L11.3350443,9.7125 L11.3350443,17.2478241 C10.4282407,16.2189043 9.00758186,15.5531327 7.37533548,15.5531327 C3.08313205,15.5531327 0,19.0333025 0,23.3305556 C0,27.6278086 3.08313205,31.077716 7.37533548,31.077716 C9.46098363,31.077716 11.2745907,30.1698457 12.3929817,28.7475154 L12.6045692,30.896142 L15.1738459,30.896142 Z M7.7380569,27.3554475 C5.71286232,27.3554475 3.83880166,25.8120679 3.83880166,23.3305556 C3.83880166,20.8490432 5.71286232,19.2754012 7.7380569,19.2754012 C9.73302469,19.2754012 11.6373121,20.8490432 11.6373121,23.3305556 C11.6373121,25.8120679 9.73302469,27.3554475 7.7380569,27.3554475 L7.7380569,27.3554475 Z M32.3166021,30.896142 L32.3166021,15.7649691 L29.7473254,15.7649691 L29.5357379,17.9135957 C28.4173468,16.4912654 26.6037397,15.5531327 24.5180916,15.5531327 C20.2258882,15.5531327 17.1427561,19.0333025 17.1427561,23.3305556 C17.1427561,27.6278086 20.2258882,31.077716 24.5180916,31.077716 C26.6037397,31.077716 28.4173468,30.1698457 29.5357379,28.7475154 L29.7473254,30.896142 L32.3166021,30.896142 Z M24.880813,27.3554475 C22.8556184,27.3554475 20.9815578,25.8120679 20.9815578,23.3305556 C20.9815578,20.8490432 22.8556184,19.2754012 24.880813,19.2754012 C26.8757808,19.2754012 28.7800682,20.8490432 28.7800682,23.3305556 C28.7800682,25.8120679 26.8757808,27.3554475 24.880813,27.3554475 L24.880813,27.3554475 Z M49.8220796,15.7649691 L45.9832779,15.7649691 L45.9832779,22.7253086 C45.9832779,25.6304938 44.5928458,26.9317747 42.4165173,26.9317747 C40.361096,26.9317747 39.0311174,25.8423302 39.0311174,23.0581944 L39.0311174,15.7649691 L35.1923158,15.7649691 L35.1923158,23.2700309 C35.1923158,27.658071 37.4290979,30.6540432 41.8119816,30.6540432 C43.3837744,30.6540432 44.985794,30.109321 45.9530512,28.8685648 L45.9530512,29.8369599 C45.9530512,32.0461111 44.4417119,33.1658179 42.2653834,33.1658179 C40.5424567,33.1960802 39.1822514,32.7118827 37.7313657,31.9855864 L35.5550372,34.315787 C37.1872836,35.6775926 39.4845192,36.67625 42.2653834,36.67625 C46.950535,36.67625 49.8220796,33.3776543 49.8220796,28.9593519 L49.8220796,15.7649691 Z M52.6977933,30.896142 L56.5668218,30.896142 L56.5668218,9.7125 L52.6977933,9.7125 L52.6977933,30.896142 Z M66.0017478,15.5531327 C61.2863693,15.5531327 58.384598,19.0333025 58.384598,23.3305556 C58.384598,27.748858 61.4979568,31.077716 66.0924281,31.077716 C68.782612,31.077716 71.0496208,29.9277469 72.6818672,28.7172531 L70.6566726,26.5081019 C69.2964673,27.2041358 67.6642209,27.567284 66.0924281,27.567284 C64.0370068,27.567284 62.3443068,26.4475772 62.3443068,24.3897377 L72.8934547,24.3897377 C73.3166297,23.0884568 73.2864029,21.0306173 72.6516404,19.6385494 C71.5030226,17.0965123 69.2360137,15.5531327 66.0017478,15.5531327 L66.0017478,15.5531327 Z M66.0017478,19.0635648 C67.4526334,19.0635648 68.5407977,19.7898611 69.054653,20.7582562 C69.2964673,21.1214043 69.4173744,21.6056019 69.4173744,21.96875 L62.4954407,21.96875 C62.5558943,20.5161574 63.9463264,19.0635648 66.0017478,19.0635648 L66.0017478,19.0635648 Z M84.5953896,19.2754012 L84.5953896,15.5531327 L83.9606271,15.5531327 C81.1193093,15.5531327 79.0941147,16.9149383 77.9757237,19.0333025 L77.5525487,15.7649691 L74.983272,15.7649691 L74.983272,30.896142 L78.8220737,30.896142 L78.8220737,24.0568519 C78.8220737,21.181929 80.2427326,19.2754012 83.0538235,19.2754012 L84.5953896,19.2754012 Z" id="dayler-copy-3" fill="#3B3B3B"></path>
                <polygon id="Path" fill="#FF7474" points="74.1440217 0 76.3960598 2.2546875 65.9015625 12.7765625 59.1304348 6.0125 61.3824728 3.7578125 65.9015625 8.2671875"></polygon>
            </g>
        </g>
    </g>
</svg>
