<?xml version="1.0" encoding="UTF-8"?>
<svg width="18px" height="32px" viewBox="0 0 18 32" version="1.1" xmlns="http://www.w3.org/2000/svg" xmlns:xlink="http://www.w3.org/1999/xlink">
    <!-- Generator: Sketch 50.2 (55047) - http://www.bohemiancoding.com/sketch -->
    <title>Group</title>
    <desc>Created with Sketch.</desc>
    <defs></defs>
    <g id="Page-4" stroke="none" stroke-width="1" fill="none" fill-rule="evenodd">
        <g id="Group">
            <path d="M17.1738459,30.896142 L17.1738459,9.7125 L13.3350443,9.7125 L13.3350443,17.2478241 C12.4282407,16.2189043 11.0075819,15.5531327 9.37533548,15.5531327 C5.08313205,15.5531327 2,19.0333025 2,23.3305556 C2,27.6278086 5.08313205,31.077716 9.37533548,31.077716 C11.4609836,31.077716 13.2745907,30.1698457 14.3929817,28.7475154 L14.6045692,30.896142 L17.1738459,30.896142 Z M9.7380569,27.3554475 C7.71286232,27.3554475 5.83880166,25.8120679 5.83880166,23.3305556 C5.83880166,20.8490432 7.71286232,19.2754012 9.7380569,19.2754012 C11.7330247,19.2754012 13.6373121,20.8490432 13.6373121,23.3305556 C13.6373121,25.8120679 11.7330247,27.3554475 9.7380569,27.3554475 L9.7380569,27.3554475 Z" id="dayler-copy-3" fill="#3B3B3B"></path>
            <polygon id="Path" fill="#FF7474" points="15.1440217 0 17.3960598 2.2546875 6.9015625 12.7765625 0.130434783 6.0125 2.38247283 3.7578125 6.9015625 8.2671875"></polygon>
        </g>
    </g>
</svg>