<?xml version="1.0" standalone="no"?>
<!DOCTYPE svg PUBLIC "-//W3C//DTD SVG 20010904//EN"
 "http://www.w3.org/TR/2001/REC-SVG-20010904/DTD/svg10.dtd">
<svg version="1.0" xmlns="http://www.w3.org/2000/svg"
 width="1360.000000pt" height="1360.000000pt" viewBox="0 0 1360.000000 1360.000000"
 preserveAspectRatio="xMidYMid meet">
<metadata>
Created by potrace 1.11, written by Peter Selinger 2001-2013
</metadata>
<g transform="translate(0.000000,1360.000000) scale(0.100000,-0.100000)"
fill="#000000" stroke="none">
<path d="M11314 9209 c-466 -467 -754 -754 -768 -767 -2 -2 -164 157 -360 352
-196 196 -360 356 -365 356 -11 0 -351 -341 -351 -352 0 -9 1066 -1078 1074
-1078 6 0 1671 1669 1673 1678 2 4 -78 87 -175 184 l-178 178 -550 -551z"/>
<path d="M1816 8190 c-2 -8 -3 -277 -2 -598 0 -320 -2 -582 -5 -582 -3 0 -16
11 -29 25 -79 84 -232 169 -370 207 -134 36 -386 32 -528 -8 -141 -39 -268
-98 -372 -172 -69 -49 -199 -174 -241 -230 -13 -19 -30 -40 -37 -47 -6 -8 -12
-18 -12 -24 0 -6 -3 -11 -8 -11 -8 0 -7 2 -76 -136 -26 -53 -49 -102 -50 -108
-1 -6 -4 -15 -7 -21 -9 -15 -56 -203 -64 -255 -16 -100 -12 -323 6 -430 10
-58 20 -109 22 -115 2 -5 12 -37 22 -70 10 -33 19 -62 20 -65 14 -43 101 -217
116 -230 3 -3 21 -27 39 -55 37 -54 65 -88 121 -144 71 -70 160 -141 178 -141
6 0 11 -4 11 -9 0 -9 199 -111 217 -111 7 0 24 -5 40 -12 47 -19 159 -45 238
-54 46 -6 204 -5 260 0 95 10 250 56 350 105 114 56 157 87 254 184 38 37 71
67 74 67 2 0 5 -10 4 -22 0 -13 3 -52 7 -88 4 -36 9 -92 11 -125 8 -110 -14
-100 217 -99 l203 1 1 1694 2 1695 -304 0 c-266 0 -304 -2 -308 -16z m-421
-1536 c33 -9 66 -20 73 -26 6 -6 12 -8 12 -4 0 10 92 -45 140 -83 78 -63 119
-111 164 -195 20 -37 34 -66 32 -66 -2 0 5 -24 16 -52 26 -69 33 -263 13 -357
-24 -109 -88 -222 -172 -306 -40 -41 -83 -77 -95 -81 -12 -4 -28 -12 -35 -20
-7 -7 -39 -22 -70 -34 -320 -120 -659 12 -796 310 -83 179 -81 411 5 587 71
146 199 258 363 318 88 33 243 36 350 9z"/>
<path d="M8431 6514 c0 -1327 2 -1693 12 -1696 10 -3 537 -3 590 1 16 1 17 89
17 1694 l0 1693 -310 0 -309 0 0 -1692z"/>
<path d="M3778 7265 c-2 -2 -23 -6 -48 -10 -48 -7 -155 -32 -180 -42 -8 -3
-21 -7 -29 -9 -53 -11 -251 -123 -330 -188 -60 -49 -166 -165 -215 -235 -100
-143 -187 -350 -210 -501 -3 -19 -8 -53 -12 -75 -17 -107 -8 -322 20 -472 13
-66 60 -201 99 -283 41 -86 94 -172 109 -178 4 -2 8 -9 8 -16 0 -13 163 -185
210 -222 48 -38 119 -84 128 -84 6 0 12 -4 14 -8 5 -12 191 -98 218 -100 3 0
12 -3 20 -6 15 -4 62 -16 90 -22 17 -4 79 -14 125 -20 39 -5 223 -4 255 1 14
2 42 6 62 9 186 26 391 130 537 274 41 39 75 71 77 70 1 -2 5 -34 8 -73 16
-184 24 -246 32 -254 6 -6 374 -9 392 -3 9 3 12 255 12 1212 l0 1207 -167 -1
c-93 -1 -178 2 -190 6 -12 4 -25 3 -28 -3 -4 -5 -11 -7 -16 -4 -5 4 -9 -2 -10
-12 0 -10 -2 -25 -3 -33 -2 -8 -7 -51 -11 -95 -4 -44 -9 -93 -10 -110 -2 -16
-4 -40 -4 -52 -1 -21 -31 -35 -31 -15 0 7 -88 99 -123 128 -66 55 -254 159
-302 166 -11 2 -24 6 -30 9 -10 6 -51 17 -90 25 -11 2 -42 8 -70 13 -44 9
-300 13 -307 6z m312 -598 c12 -3 62 -17 110 -32 63 -19 163 -87 227 -152 116
-121 177 -285 176 -473 -1 -106 -36 -242 -79 -305 -13 -20 -24 -40 -24 -46 0
-8 -128 -139 -162 -166 -27 -20 -119 -64 -167 -79 -101 -32 -243 -36 -346 -11
-204 52 -372 210 -434 410 -18 59 -23 87 -35 205 -2 17 -1 32 3 32 3 0 5 19 5
42 -3 114 72 289 164 385 97 101 231 173 349 189 26 3 49 7 51 9 3 3 142 -4
162 -8z"/>
<path d="M10409 7266 c-2 -3 -24 -7 -49 -10 -89 -11 -155 -27 -255 -62 -91
-33 -243 -112 -275 -144 -3 -3 -27 -23 -55 -45 -63 -49 -125 -114 -179 -185
-22 -30 -43 -57 -46 -60 -40 -40 -156 -317 -173 -415 -3 -16 -8 -41 -12 -55
-18 -82 -26 -329 -12 -440 43 -356 233 -675 510 -857 67 -43 221 -122 248
-127 8 -1 19 -5 25 -8 6 -4 21 -9 35 -12 13 -3 51 -12 84 -21 61 -15 107 -23
173 -30 52 -6 250 -6 295 0 20 3 52 7 70 9 158 20 437 113 557 186 8 5 49 28
90 52 41 23 101 61 132 83 l57 41 -51 55 c-27 30 -84 92 -127 138 -42 46 -92
101 -112 122 l-36 39 -62 -30 c-34 -17 -68 -30 -76 -30 -7 0 -16 -4 -19 -9 -3
-4 -20 -12 -38 -16 -18 -4 -35 -9 -38 -10 -45 -16 -105 -31 -154 -39 -21 -4
-48 -9 -60 -11 -81 -19 -370 -27 -436 -12 -96 21 -250 88 -250 108 0 5 -6 9
-13 9 -15 0 -89 81 -116 127 -43 70 -68 171 -62 239 1 9 222 11 841 10 l840
-1 14 50 c8 28 17 70 21 95 12 68 14 270 4 331 -5 30 -11 69 -14 88 -26 165
-139 376 -281 527 -70 74 -207 170 -304 215 -164 74 -324 106 -545 107 -78 1
-144 0 -146 -2z m286 -570 c17 -4 37 -9 45 -13 8 -3 20 -7 26 -8 6 -2 35 -14
65 -29 136 -64 246 -211 273 -363 3 -20 1 -33 -7 -35 -10 -4 -1068 -3 -1090 1
-9 1 -3 46 11 96 36 120 139 237 262 298 41 20 84 38 95 40 11 1 26 6 33 11 7
4 16 6 18 3 3 -3 17 -1 32 3 30 9 189 6 237 -4z"/>
<path d="M13198 7249 c-163 -32 -321 -99 -416 -176 -87 -70 -114 -95 -165
-154 -32 -36 -75 -93 -95 -127 -20 -34 -39 -62 -42 -62 -5 0 -19 89 -34 220
-15 122 -18 148 -23 170 -5 26 -9 60 -11 96 -2 20 -6 21 -209 20 l-207 -1 0
-1203 c-1 -793 2 -1206 9 -1210 12 -8 583 -9 596 -1 5 3 10 273 12 625 2 340
7 631 11 647 3 15 8 37 10 50 33 187 158 371 309 452 112 59 196 76 397 80 96
1 180 3 185 4 7 1 10 104 10 297 l0 295 -125 -2 c-69 -1 -164 -10 -212 -20z"/>
<path d="M5633 7224 c-6 -16 3 -1382 10 -1414 3 -14 7 -41 11 -60 32 -199 116
-407 214 -530 53 -68 150 -156 222 -204 67 -45 222 -112 281 -122 19 -3 41 -8
49 -11 31 -12 133 -22 240 -25 266 -6 508 82 655 240 l40 43 -2 -98 c-1 -86
-6 -146 -16 -205 -2 -10 -6 -21 -10 -24 -4 -4 -7 -16 -7 -26 0 -20 -10 -40
-50 -103 -37 -59 -50 -73 -104 -113 -109 -80 -230 -115 -405 -116 -104 0 -198
6 -256 18 -123 25 -232 61 -366 121 l-104 46 -80 -87 c-44 -48 -122 -130 -172
-183 l-93 -96 28 -25 c58 -51 82 -70 91 -70 5 0 16 -6 23 -12 29 -28 175 -107
273 -149 51 -22 127 -49 147 -53 13 -3 50 -12 83 -21 33 -9 71 -18 85 -20 14
-3 35 -6 47 -9 89 -19 376 -26 487 -12 447 56 796 337 943 759 13 40 27 83 29
97 3 14 9 41 14 60 8 32 15 79 26 185 6 61 6 2213 0 2223 -6 10 -605 12 -607
3 0 -3 -2 -287 -4 -631 -1 -344 -6 -638 -9 -655 -4 -16 -12 -48 -17 -70 -5
-22 -11 -48 -14 -58 -2 -10 -11 -32 -20 -49 -8 -17 -15 -35 -15 -40 0 -11 -42
-72 -52 -76 -5 -2 -8 -8 -8 -13 0 -10 -19 -29 -73 -76 -41 -35 -107 -68 -177
-88 -69 -20 -270 -29 -319 -14 -85 25 -110 34 -146 50 -45 21 -145 108 -145
127 0 7 -4 12 -8 12 -10 0 -48 77 -67 134 -14 44 -22 78 -31 141 -4 22 -7 326
-8 675 l-1 635 -303 1 c-235 1 -305 -2 -309 -12z"/>
</g>
</svg>
